<svg xmlns="http://www.w3.org/2000/svg" width="24" height="24" viewBox="0 0 48 48">
    <!-- 来源: app/src/main/res/drawable/ic_search.xml (搜索: 圆+斜杆; viewport=48x48; autoMirrored=true 桌面端 SVG 无 RTL 概念, 直接绘制; 原 fillColor #39393A + strokeColor #39393A + strokeWidth 2) -->
    <path fill="#39393A" stroke="#39393A" stroke-width="2" d="M20,32.7c-6.9,0 -12.6,-5.6 -12.6,-12.6c0,-6.9 5.6,-12.6 12.6,-12.6c6.9,0 12.6,5.6 12.6,12.6C32.6,27 27,32.7 20,32.7M20,9C13.9,9 8.9,14 8.9,20.1c0,6.1 5,11.1 11.1,11.1c6.1,0 11.1,-5 11.1,-11.1C31.1,14 26.2,9 20,9"/>
    <path fill="#39393A" stroke="#39393A" stroke-width="2" d="M39.8,40.4c-0.2,0 -0.4,-0.1 -0.5,-0.2L28.1,29.1c-0.3,-0.3 -0.3,-0.7 0,-1c0.3,-0.3 0.7,-0.3 1,0l11.1,11.1c0.3,0.3 0.3,0.7 0,1C40.2,40.4 40,40.4 39.8,40.4"/>
</svg>
